:version 1.10
:name ASF
:units
  mass 1
  length 1
  angle deg
:documentation
  ASF file generated by Kaydara
:root
  axis xyz
  order  tx ty tz rx ry rz
  position 0 0 0
  orientation 0 0 0
:bonedata
  begin
    id 1
    name RightUpLegDummy
    direction -0.718183 -0.695806 0.00816078
    length 4.904
    axis 0 0 0 xyz
  end
  begin
    id 2
    name RightUpLeg
    direction 3.53989e-006 -0.995788 0.0916897
    length 17.4976
    axis -3.49089 -0.000906621 0.000287158 xyz
    dof rx ry rz
  end
  begin
    id 3
    name RightLeg
    direction 0.00371093 -0.995096 -0.0988418
    length 16.5821
    axis 3.68512 0.0193738 -0.131023 xyz
    dof rx ry rz
  end
  begin
    id 4
    name RightFoot
    direction 0.000791514 -0.46099 0.887405
    length 3.77069
    axis 4.84075e-005 -0.120479 -0.188788 xyz
    dof rx ry rz
  end
  begin
    id 5
    name RightToes
    direction 0.00124746 -0.014064 0.9999
    length 3.85082
    axis 0.00048216 0.542163 -0.142577 xyz
    dof rx ry rz
  end
  begin
    id 6
    name SpineDummy
    direction 8.36599e-015 1 5.97571e-016
    length 4.6813
    axis 0 0 0 xyz
  end
  begin
    id 7
    name Spine
    direction -4.63632e-008 0.999988 0.00495137
    length 10.1015
    axis -0.00138897 0.000121419 3.25764e-006 xyz
    dof rx ry rz
  end
  begin
    id 8
    name Spine1
    direction 0 0 0
    length 0
    axis -0.00138896 0.000121452 2.39764e-006 xyz
    dof rx ry rz
  end
  begin
    id 9
    name HEadDummy
    direction -3.91456e-008 0.999999 0.00127422
    length 3.43865
    axis -0.00138896 0.000121452 2.39764e-006 xyz
  end
  begin
    id 10
    name HEad
    direction -0.0222688 0.980941 0.193023
    length 5.12695
    axis -0.00138895 0.000121452 2.39764e-006 xyz
    dof rx ry rz
  end
  begin
    id 11
    name LeftShoulder1Dummy
    direction 0.998891 -0.0402508 -0.0244456
    length 3.5433
    axis -0.00138896 0.000121452 2.39764e-006 xyz
  end
  begin
    id 12
    name LeftShoulder1
    direction 0.99951 -0.000327743 0.0313091
    length 4.05031
    axis -0.00138896 0.000121452 2.39764e-006 xyz
    dof rx ry rz
  end
  begin
    id 13
    name LeftArm
    direction 0.998561 -0.00100054 -0.0536182
    length 10.3537
    axis -23.1894 0.134784 0.96751 xyz
    dof rx ry rz
  end
  begin
    id 14
    name LeftForeArm
    direction 0.998903 0.00866434 0.046012
    length 8.70632
    axis -9.91835 -0.06569 -0.177792 xyz
    dof rx ry rz
  end
  begin
    id 15
    name LeftHand
    direction 0.992938 -0.0411636 0.11126
    length 5.32135
    axis -0.00960227 -0.00340091 0.185174 xyz
    dof rx ry rz
  end
  begin
    id 16
    name RightShoulderDummy
    direction -0.998891 -0.0402509 -0.0244414
    length 3.5433
    axis -0.00138896 0.000121452 2.39764e-006 xyz
  end
  begin
    id 17
    name RightShoulder
    direction -0.99951 -0.000327827 0.0313133
    length 4.05031
    axis 0.215806 0.000203644 -0.00680151 xyz
    dof rx ry rz
  end
  begin
    id 18
    name RightArm
    direction -0.998573 -0.000999583 -0.053403
    length 10.3947
    axis -23.2009 -0.134239 -0.9641 xyz
    dof rx ry rz
  end
  begin
    id 19
    name RightForeArm
    direction -0.998898 0.00868026 0.0461306
    length 8.68355
    axis -9.92322 0.0658061 0.178869 xyz
    dof rx ry rz
  end
  begin
    id 20
    name RightHand
    direction -0.992843 -0.0414603 0.112003
    length 5.28593
    axis -0.00960634 0.00330671 -0.185226 xyz
    dof rx ry rz
  end
  begin
    id 21
    name LeftUpLegDummy
    direction 0.718183 -0.695806 0.00816078
    length 4.904
    axis 0 0 0 xyz
  end
  begin
    id 22
    name LeftUpLeg
    direction -6.8115e-006 -0.995793 0.0916336
    length 17.4976
    axis -3.48766 0.00143441 -0.000523914 xyz
    dof rx ry rz
  end
  begin
    id 23
    name LeftLeg
    direction -0.00601357 -0.995091 -0.0987824
    length 16.5821
    axis 3.68177 -0.00654038 -0.00028478 xyz
    dof rx ry rz
  end
  begin
    id 24
    name LeftFoot
    direction -0.00417578 -0.460984 0.887399
    length 3.77069
    axis 1.87232e-006 4.66002e-005 -8.1837e-006 xyz
    dof rx ry rz
  end
  begin
    id 25
    name LeftToes
    direction 0.00818058 -0.00485161 0.999955
    length 3.85048
    axis 1.06246e-005 4.65855e-005 -8.18502e-006 xyz
    dof rx ry rz
  end
:hierarchy
  begin
    root RightUpLegDummy SpineDummy LeftUpLegDummy
    RightUpLegDummy RightUpLeg
    RightUpLeg RightLeg
    RightLeg RightFoot
    RightFoot RightToes
    SpineDummy Spine
    Spine Spine1
    Spine1 HEadDummy LeftShoulder1Dummy RightShoulderDummy
    HEadDummy HEad
    LeftShoulder1Dummy LeftShoulder1
    LeftShoulder1 LeftArm
    LeftArm LeftForeArm
    LeftForeArm LeftHand
    RightShoulderDummy RightShoulder
    RightShoulder RightArm
    RightArm RightForeArm
    RightForeArm RightHand
    LeftUpLegDummy LeftUpLeg
    LeftUpLeg LeftLeg
    LeftLeg LeftFoot
    LeftFoot LeftToes
  end

:SAMPLES-PER-SECOND 30
:FULLY-SPECIFIED
:DEGREES
1
root  3.65379 39.2556 0.499074 104.546 -79.6722 -111.519
RightUpLeg  3.30315 -7.22206 2.24625
RightLeg  8.72197 -1.52402 1.99839
RightFoot  -2.14962 -0.595163 7.24567
RightToes  7.56698e-010 0 -3.6325e-017
Spine  5.58142 -1.31997 8.06463
Spine1  10.1174 -3.81704 12.6141
HEad  27.9877 -4.82938 -0.543752
LeftShoulder1  2.65702 -6.4847 -20.1654
LeftArm  -8.76587 16.3881 -55.2633
LeftForeArm  28.7294 1.28662 -14.0252
LeftHand  -1.5052 -1.40728 25.5711
RightShoulder  1.21842 1.84501 16.1231
RightArm  4.18038 13.51 61.4558
RightForeArm  10.7273 48.6123 11.9573
RightHand  -1.65633 6.34318 -16.592
LeftUpLeg  -7.44941 -2.02248 17.1917
LeftLeg  34.1393 13.7446 10.1647
LeftFoot  -7.6261 0.54264 -15.2524
LeftToes  -3.13779e-010 -2.47553e-011 -5.36621e-011
2
root  3.69491 39.2291 0.468186 104.813 -79.3837 -111.559
RightUpLeg  2.83654 -6.9432 2.70493
RightLeg  8.98556 -1.74479 1.89265
RightFoot  -2.2244 -0.600339 7.32403
RightToes  7.56698e-010 0 -3.6325e-017
Spine  5.63743 -1.12476 7.85721
Spine1  9.90112 -3.88386 13.6312
HEad  28.5357 -5.16375 -0.481438
LeftShoulder1  2.72381 -6.63579 -20.4465
LeftArm  -8.64864 15.8357 -55.6684
LeftForeArm  28.8744 1.74194 -14.1182
LeftHand  -1.46619 -1.19486 25.7048
RightShoulder  1.26027 1.9161 16.6386
RightArm  4.34477 14.969 61.1872
RightForeArm  10.1942 47.7482 11.6208
RightHand  -1.61719 6.39248 -16.149
LeftUpLeg  -7.98324 -1.9435 17.5438
LeftLeg  34.6145 13.6851 10.2941
LeftFoot  -7.63179 0.532925 -14.9799
LeftToes  -3.13779e-010 -2.47553e-011 -5.36621e-011
3
root  3.73865 39.2473 0.438166 104.899 -79.4603 -111.291
RightUpLeg  2.30188 -6.59687 2.90604
RightLeg  9.10054 -2.16189 1.61991
RightFoot  -2.19552 -0.617371 7.51993
RightToes  7.56698e-010 0 -3.6325e-017
Spine  5.65412 -0.974923 7.15256
Spine1  9.58258 -4.06049 14.7224
HEad  29.0328 -5.79467 -0.152282
LeftShoulder1  2.7959 -6.79919 -20.7402
LeftArm  -8.59158 14.5031 -56.3833
LeftForeArm  29.3266 2.65734 -14.2089
LeftHand  -1.38272 -0.744018 26.0048
RightShoulder  1.33527 2.12892 17.1341
RightArm  4.83564 16.9795 61.5493
RightForeArm  9.15509 44.603 10.4404
RightHand  -1.62716 6.52008 -16.077
LeftUpLeg  -8.26761 -2.06907 17.4188
LeftLeg  34.3132 14.1146 10.4793
LeftFoot  -7.56309 0.526797 -14.5392
LeftToes  -3.13779e-010 -2.47553e-011 -5.36621e-011
4
root  3.74652 39.3529 0.450282 103.66 -80.4442 -109.713
RightUpLeg  2.09202 -6.4494 2.24034
RightLeg  8.77614 -2.768 1.14971
RightFoot  -1.96485 -0.653016 7.7866
RightToes  7.56698e-010 0 -3.6325e-017
Spine  5.73876 -1.11275 6.18501
Spine1  8.95201 -4.16207 14.4375
HEad  28.7448 -6.43918 0.466186
LeftShoulder1  2.81992 -6.95456 -20.5556
LeftArm  -8.45446 12.7708 -57.0429
LeftForeArm  29.5308 3.35563 -14.2544
LeftHand  -1.31473 -0.365861 26.3284
RightShoulder  1.3883 2.36193 17.0904
RightArm  5.92883 17.872 62.8586
RightForeArm  7.77075 38.8434 8.55885
RightHand  -1.71181 6.5955 -16.7842
LeftUpLeg  -7.65668 -2.52915 16.2548
LeftLeg  32.2152 14.9738 10.2775
LeftFoot  -7.49181 0.51948 -14.0676
LeftToes  -3.13779e-010 -2.47553e-011 -5.36621e-011
5
root  3.72598 39.5154 0.50386 100.935 -82.1245 -106.535
RightUpLeg  1.94205 -6.46908 0.890269
RightLeg  8.23344 -3.49437 0.537104
RightFoot  -1.60852 -0.694772 8.01827
RightToes  7.56698e-010 0 -3.6325e-017
Spine  5.93497 -1.3482 5.17396
Spine1  7.69498 -3.97909 12.8688
HEad  27.728 -6.98255 0.994251
LeftShoulder1  2.82779 -7.17001 -20.0512
LeftArm  -7.52076 11.0226 -57.4024
LeftForeArm  28.6264 2.83495 -14.4248
LeftHand  -1.31209 -0.351987 26.3418
RightShoulder  1.39803 2.47929 16.7579
RightArm  8.9291 17.5086 64.299
RightForeArm  4.91793 31.3082 6.43517
RightHand  -1.78245 6.47562 -17.6229
LeftUpLeg  -6.42339 -2.65421 14.4422
LeftLeg  28.4897 15.3828 9.19272
LeftFoot  -7.48153 0.498577 -13.417
LeftToes  -3.13779e-010 -2.47553e-011 -5.36621e-011
6
root  3.69527 39.6996 0.572351 97.5191 -84.0484 -102.456
RightUpLeg  1.59813 -6.5292 -0.747389
RightLeg  7.66493 -4.13728 -0.0987743
RightFoot  -1.18091 -0.735574 8.16971
RightToes  7.56698e-010 0 -3.6325e-017
Spine  6.07359 -1.35208 3.97508
Spine1  6.01725 -3.50014 10.9918
HEad  26.3356 -7.54381 1.12624
LeftShoulder1  2.86078 -7.36462 -19.8671
LeftArm  -4.4936 9.22266 -57.3784
LeftForeArm  25.9608 0.280576 -14.7999
LeftHand  -1.3653 -0.650952 26.0682
RightShoulder  1.40697 2.55792 16.5872
RightArm  12.132 16.6895 64.7971
RightForeArm  2.67915 22.9162 5.95441
RightHand  -1.78911 6.20844 -18.0751
LeftUpLeg  -5.01992 -1.59176 12.5478
LeftLeg  23.8512 14.5912 7.26816
LeftFoot  -7.30417 0.483017 -12.4333
LeftToes  -3.13779e-010 -2.47553e-011 -5.36621e-011
7
root  3.65576 39.8875 0.644386 89.3189 -85.9688 -93.6439
RightUpLeg  1.35721 -6.62398 -2.478
RightLeg  7.08482 -4.71496 -0.712375
RightFoot  -0.729838 -0.77918 8.32168
RightToes  7.56698e-010 0 -3.6325e-017
Spine  6.07651 -1.12714 2.51273
Spine1  4.57837 -2.91471 9.26535
HEad  24.5915 -8.29933 1.03972
LeftShoulder1  2.90764 -7.39868 -20.2411
LeftArm  2.6782 7.03302 -57.2222
LeftForeArm  20.2956 -4.75031 -14.7573
LeftHand  -1.43602 -0.968084 26.0533
RightShoulder  1.46087 2.76976 16.6671
RightArm  3.4067 15.94 63.5677
RightForeArm  13.1434 12.558 10.6002
RightHand  -1.74275 5.75085 -18.3163
LeftUpLeg  -3.51014 0.531423 10.7077
LeftLeg  19.0156 12.6587 5.16497
LeftFoot  -6.61482 0.502962 -11.2144
LeftToes  -3.13779e-010 -2.47553e-011 -5.36621e-011
8
root  3.604 40.0499 0.732681 60.1327 -87.268 -64.2713
RightUpLeg  1.63536 -6.84105 -4.21343
RightLeg  6.71336 -5.58235 -1.33248
RightFoot  -0.417043 -0.822772 8.55899
RightToes  7.56698e-010 0 -3.6325e-017
Spine  6.14286 -0.963614 1.14127
Spine1  3.78214 -2.43497 7.41911
HEad  22.416 -9.3388 1.10509
LeftShoulder1  2.9288 -7.3226 -20.6501
LeftArm  15.3396 4.46572 -57.5113
LeftForeArm  10.012 -12.1054 -12.4935
LeftHand  -1.5198 -1.21551 26.5258
RightShoulder  1.54545 3.08447 16.8521
RightArm  -10.7573 14.7572 61.4916
RightForeArm  28.1529 0.753366 13.2813
RightHand  -1.61638 4.89476 -18.383
LeftUpLeg  -1.87133 3.09033 8.84152
LeftLeg  14.6286 9.66016 3.64883
LeftFoot  -5.42198 0.55208 -10.0355
LeftToes  -3.13779e-010 -2.47553e-011 -5.36621e-011
9
root  3.54845 40.1577 0.844425 13.0748 -86.5552 -17.4796
RightUpLeg  2.34804 -7.17178 -5.84
RightLeg  6.88101 -6.9805 -1.95086
RightFoot  -0.364987 -0.858575 8.89203
RightToes  7.56698e-010 0 -3.6325e-017
Spine  6.44463 -0.971935 0.16074
Spine1  3.48731 -2.09804 5.33627
HEad  20.1998 -10.6427 1.41477
LeftShoulder1  2.9157 -7.30365 -20.5716
LeftArm  28.234 1.87534 -58.4225
LeftForeArm  -0.861359 -19.9458 -7.60975
LeftHand  -1.61636 -1.5453 26.8652
RightShoulder  1.6062 3.28979 17.0534
RightArm  -14.3569 12.5769 59.9173
RightForeArm  32.758 -6.54039 11.9751
RightHand  -1.39563 3.71816 -17.9044
LeftUpLeg  -0.347059 5.42627 7.0607
LeftLeg  11.2359 5.913 2.94718
LeftFoot  -4.13818 0.597154 -9.07873
LeftToes  -3.13779e-010 -2.47553e-011 -5.36621e-011
